inDegrees=yes
name=ik_S56_A08_T02
DataType=double
version=3
OpenSimVersion=4.3-2021-08-27-4bc7ad9
endheader
time	pelvis_tilt	pelvis_list	pelvis_rotation	pelvis_tx	pelvis_ty	pelvis_tz	hip_flexion_r	hip_adduction_r	hip_rotation_r	knee_angle_r	knee_angle_r_beta	ankle_angle_r	subtalar_angle_r	mtp_angle_r	hip_flexion_l	hip_adduction_l	hip_rotation_l	knee_angle_l	knee_angle_l_beta	ankle_angle_l	subtalar_angle_l	mtp_angle_l	lumbar_extension	lumbar_bending	lumbar_rotation	arm_flex_r	arm_add_r	arm_rot_r	elbow_flex_r	pro_sup_r	wrist_flex_r	wrist_dev_r	arm_flex_l	arm_add_l	arm_rot_l	elbow_flex_l	pro_sup_l	wrist_flex_l	wrist_dev_l
5.799999999999964	-4.401228849814597	-3.159323858738755	28.79029060417209	0	0.9399999999999999	0	45.32358380686683	-13.23804477513374	-12.75546933040457	48.35015236918401	0.8438693526831978	0	0	0	45.32358380686683	-13.23804477513374	-12.75546933040457	48.35015236918401	0.8438693526831978	0	0	0	-6.667822927562866	1.96721031824114	0.2395418606081801	32.81893847523274	-10.10461937433235	17.41750127576003	38.07818475450031	115.5242727885441	0	0	45.79494317101176	-2.25274305704989	13.46892809569386	78.2659390434174	92.15222760466368	0	0
5.819999999999964	-4.420260537441916	-3.157499232113588	28.59294730878429	0	0.9399999999999999	0	45.32347769344081	-13.23433263111138	-12.75344623592277	48.3516352629532	0.8438952340619276	0	0	0	45.32347769344081	-13.23433263111138	-12.75344623592277	48.3516352629532	0.8438952340619276	0	0	0	-6.677221417703797	1.958590354159579	0.3672163659731485	32.84400776884394	-10.09496711109796	17.48068163337001	38.08266838741033	115.3652277918183	0	0	46.21108400377292	-1.816438030194404	13.94077340004285	76.25344910014553	91.71495646095993	0	0
5.839999999999963	-4.465105733387642	-3.156706633042616	28.4354814247629	0	0.9399999999999999	0	45.32335344422486	-13.22997057784653	-12.75107146492777	48.35336477404814	0.843925419724984	0	0	0	45.32335344422486	-13.22997057784653	-12.75107146492777	48.35336477404814	0.843925419724984	0	0	0	-6.71219972899814	1.968589449772583	0.4473355158924402	32.9151506515575	-10.09414749519611	17.56941287656264	38.10273863007694	115.377922606656	0	0	46.61154108277315	-1.360983123859135	14.39478239318912	74.78427249021138	91.80204920237666	0	0
5.859999999999963	-4.49956619686954	-3.162305235471942	28.19793646549529	0	0.9399999999999999	0	45.32323556866069	-13.22583896989627	-12.74882054246235	48.35500670162609	0.8439540767672985	0	0	0	45.32323556866069	-13.22583896989627	-12.74882054246235	48.35500670162609	0.8439540767672985	0	0	0	-6.736019925198891	1.952534847316598	0.6335171352163416	32.97197259068412	-10.08879838280263	17.61085375726459	38.10694695128821	115.2949321648051	0	0	47.08496124947406	-0.3914076418035242	15.26169512278114	72.20396519078268	92.5350274956083	0	0
5.879999999999963	-4.544348701873814	-3.154377445761444	28.14010533513453	0	0.9399999999999999	0	45.32295195429146	-13.21732552260232	-12.74384247248392	48.35904203655812	0.8440245066482832	0	0	0	45.32295195429146	-13.21732552260232	-12.74384247248392	48.35904203655812	0.8440245066482832	0	0	0	-6.772220076699286	1.982734642369053	0.6089273994344203	33.0146899007081	-10.09006026351817	17.68061687382228	38.14220729946345	115.359244880798	0	0	47.15276745453294	-0.4035633164449728	15.15012574643859	72.19755314086537	92.5553734086004	0	0
5.899999999999962	-4.578966608160352	-3.162225712053586	28.00159424612592	0	0.9399999999999999	0	45.32282896124615	-13.21302082125346	-12.74149515728602	48.36075390934115	0.8440543844647224	0	0	0	45.32282896124615	-13.21302082125346	-12.74149515728602	48.36075390934115	0.8440543844647224	0	0	0	-6.801351358109538	1.977298601031045	0.7048263298853366	33.07677153966188	-10.07828709476627	17.72713630147633	38.18061289184502	115.2376193049309	0	0	47.30940457905429	-0.02444756534396215	15.8267859942546	70.77962723203053	92.34940398735228	0	0
5.919999999999962	-4.606919517665983	-3.16360595629447	27.93213996423119	0	0.9399999999999999	0	45.32275097078879	-13.21029561675419	-12.74000812654678	48.36184040319059	0.8440733473596977	0	0	0	45.32275097078879	-13.21029561675419	-12.74000812654678	48.36184040319059	0.8440733473596977	0	0	0	-6.824230859717648	1.981854288216092	0.7522215463974962	33.07627700308181	-10.06644880561983	17.75108006870256	38.22821039881374	115.214227610524	0	0	47.50808453027464	0.1695782681439726	16.29380373156699	70.58300455007613	92.27724934162806	0	0
5.939999999999961	-4.632825647824032	-3.165680535682633	27.83326623163389	0	0.9399999999999999	0	45.32264809514892	-13.20674289636191	-12.7380614302765	48.36328774678215	0.8440986082707781	0	0	0	45.32264809514892	-13.20674289636191	-12.7380614302765	48.36328774678215	0.8440986082707781	0	0	0	-6.845230307143982	1.986549308580829	0.7900606285533078	33.0626949248932	-10.05578700280167	17.8221468434493	38.30414198132603	115.1783446295174	0	0	47.50124039346849	0.2334776322766494	16.48361275709947	69.21274274323208	91.92084464675338	0	0
5.959999999999961	-4.706452413604849	-3.189073466479684	27.68292767814294	0	0.9399999999999999	0	45.32254587992509	-13.20317241942016	-12.73611243691065	48.36471039262691	0.844123438124859	0	0	0	45.32254587992509	-13.20317241942016	-12.73611243691065	48.36471039262691	0.844123438124859	0	0	0	-6.914871927517453	1.979914268508515	0.9240941233380001	33.1640685226417	-10.06467288426382	17.85177681900643	38.3530143532296	115.1237397329815	0	0	47.85553864139327	0.8620117951899106	17.54993084760528	68.18859946309594	92.41917062615231	0	0
5.97999999999996	-4.749092206767363	-3.177842946966384	27.54500444083675	0	0.9399999999999999	0	45.32240810236586	-13.19836637939425	-12.73348733397093	48.36662896324735	0.8441569234991178	0	0	0	45.32240810236586	-13.19836637939425	-12.73348733397093	48.36662896324735	0.8441569234991178	0	0	0	-6.942333976124823	1.995092808010377	1.019010435735761	33.1864973751422	-10.09341138633635	17.9446286474011	38.42112739295553	115.0781736846258	0	0	47.99580455678711	1.311876365863138	18.08873286573118	67.2211014964704	93.43574231674901	0	0
5.99999999999996	-4.761715107898266	-3.191885024085046	27.47761325958725	0	0.9399999999999999	0	45.32231921149607	-13.19527137471458	-12.7317954895104	48.36786797879619	0.8441785483999283	0	0	0	45.32231921149607	-13.19527137471458	-12.7317954895104	48.36786797879619	0.8441785483999283	0	0	0	-6.955460455088211	1.97527493244547	1.103891895769334	33.16063988090276	-10.07298891251712	17.91719083251243	38.46970275608322	115.0182666418401	0	0	48.14859833532542	1.671323438241758	18.67479099189779	66.69582145628938	93.76833595174421	0	0
6.01999999999996	-4.787470042949075	-3.188417493571009	27.34905218597099	0	0.9399999999999999	0	45.32219132064742	-13.190836647304	-12.72936755638703	48.36965596834802	0.844209754704599	0	0	0	45.32219132064742	-13.190836647304	-12.72936755638703	48.36965596834802	0.844209754704599	0	0	0	-6.971710689580654	1.974931513136948	1.204085389311306	33.14640859173616	-10.06799004270359	17.95860585571528	38.53867447066143	115.0242172011282	0	0	48.36726300699299	2.009349984356798	19.05551785913704	65.51644679733761	94.65671792744136	0	0
6.039999999999959	-4.824329961105599	-3.202297817993465	27.28666183394249	0	0.9399999999999999	0	45.3221026401018	-13.18776203850266	-12.72768393834554	48.37089511555411	0.8442313819032623	0	0	0	45.3221026401018	-13.18776203850266	-12.72768393834554	48.37089511555411	0.8442313819032623	0	0	0	-7.006984876330524	1.967782251898142	1.279827126125392	33.19455162820478	-10.07138137716237	17.92563569539692	38.59220693934846	115.032036060958	0	0	48.67987646472892	2.349558850336154	19.36741528189651	64.92805475088815	95.15959008817285	0	0
6.059999999999959	-4.838817308342604	-3.203356543244286	27.16048993320842	0	0.9399999999999999	0	45.3220035111066	-13.18435463886557	-12.72581235242479	48.37229020729151	0.8442557308474473	0	0	0	45.3220035111066	-13.18435463886557	-12.72581235242479	48.37229020729151	0.8442557308474473	0	0	0	-7.015603615181366	1.957861660152756	1.383935936193319	33.19248110475463	-10.04926684658497	17.91680800516715	38.63347402705437	115.0431277528653	0	0	48.93828626884859	2.67829583295145	19.5754432155197	64.18767964038986	96.51877650625634	0	0
6.079999999999958	-4.863938223769896	-3.190154247660624	27.06463739680668	0	0.9399999999999999	0	45.32189412733456	-13.18058266052476	-12.7237425193344	48.37382424852696	0.8442825049178672	0	0	0	45.32189412733456	-13.18058266052476	-12.7237425193344	48.37382424852696	0.8442825049178672	0	0	0	-7.028115418958689	1.968576772258548	1.466368330012712	33.1981641354475	-10.07560227177127	17.92131139771925	38.6628550359577	115.0549233269395	0	0	49.21218882962035	2.989650104015505	19.71338755396862	63.8100150091275	97.68831740601141	0	0
6.099999999999958	-4.876940151803832	-3.185507734003075	26.99324708245053	0	0.9399999999999999	0	45.32180468982245	-13.17749470692629	-12.72204854054832	48.37507643003952	0.844304359608094	0	0	0	45.32180468982245	-13.17749470692629	-12.72204854054832	48.37507643003952	0.844304359608094	0	0	0	-7.034909484037532	1.970019045813849	1.521712327949075	33.20112370817094	-10.06892728116321	17.90381738309304	38.67924814847837	115.0621897268377	0	0	49.46890172989525	3.203097235263825	19.88191390169903	63.66489027349203	98.55018675639522	0	0
6.119999999999957	-4.873072844226657	-3.176261306771105	26.94817108368924	0	0.9399999999999999	0	45.32170726285316	-13.17411630172357	-12.72019776582722	48.37643443651511	0.8443280612923564	0	0	0	45.32170726285316	-13.17411630172357	-12.72019776582722	48.37643443651511	0.8443280612923564	0	0	0	-7.02572139444198	1.971787759588433	1.549952548643205	33.13545692756826	-10.04596451838081	17.83880061055619	38.70561360201928	115.1361671141104	0	0	49.70042666092349	3.33478485098484	20.02824293958741	63.56513968709142	98.76824336581308	0	0
6.139999999999957	-4.87968619536364	-3.172174929686641	26.88609805165015	0	0.9399999999999999	0	45.32159835257112	-13.17035318439691	-12.71813342246257	48.37795640607767	0.8443546246723381	0	0	0	45.32159835257112	-13.17035318439691	-12.71813342246257	48.37795640607767	0.8443546246723381	0	0	0	-7.028041476718443	1.973171723204953	1.580831636536661	33.11194860737865	-10.04111625034378	17.84201111661082	38.73438025506202	115.1798326562824	0	0	49.97551537837067	3.368054843333845	20.1700577684032	63.49424121397839	98.21035666953003	0	0
6.159999999999957	-4.883624372519999	-3.169495272792625	26.85893221345158	0	0.9399999999999999	0	45.32147211140181	-13.16599486316711	-12.71574151236483	48.379720581042	0.844385415334047	0	0	0	45.32147211140181	-13.16599486316711	-12.71574151236483	48.379720581042	0.844385415334047	0	0	0	-7.028751396449387	1.972436611185891	1.608503908419819	33.10928956008993	-10.03743952923002	17.84319223108329	38.73094368796394	115.2273828912703	0	0	50.23140882932232	3.347725499371764	20.34533466298963	63.39417423143066	97.87200307137518	0	0
6.179999999999956	-4.90506761631035	-3.171016977132358	26.8034776991795	0	0.9399999999999999	0	45.32138300708667	-13.16299021222276	-12.71407899670217	48.38099161541481	0.8444075990687585	0	0	0	45.32138300708667	-13.16299021222276	-12.71407899670217	48.38099161541481	0.8444075990687585	0	0	0	-7.046115107336451	1.972944147841297	1.656404465106588	33.135633980694	-10.04809410265039	17.84854836108808	38.75483401440138	115.2361968917116	0	0	50.25845394500841	3.382675311979569	20.36586461421226	64.01265792290674	98.25271238034452	0	0
